<svg aria-hidden="true" style="position: absolute; width: 0; height: 0; overflow: hidden;" version="1.1" xmlns="http://www.w3.org/2000/svg" xmlns:xlink="http://www.w3.org/1999/xlink">
<defs>
<symbol id="icon-Vector" viewBox="0 0 29 32">
<path fill="#fff" style="fill: var(--color1, #fff)" d="M16.555 18.586c-0.582-0.614-1.605-1.008-2.812-1.008s-2.23 0.394-2.812 1.008c-0.304 0.32-0.465 0.649-0.515 1.117-0.098 0.907-0.043 1.687 0.063 2.935 0.101 1.189 0.293 2.775 0.544 4.39 0.178 1.15 0.323 1.77 0.455 2.214 0.214 0.72 1.014 1.35 2.265 1.35s2.051-0.63 2.265-1.35c0.132-0.444 0.277-1.065 0.455-2.214 0.251-1.615 0.443-3.201 0.544-4.39 0.106-1.248 0.161-2.029 0.063-2.935-0.050-0.468-0.211-0.797-0.515-1.117zM10.57 13.116c0 1.754 1.422 3.176 3.176 3.176s3.176-1.422 3.176-3.176c0-1.754-1.422-3.176-3.176-3.176s-3.176 1.422-3.176 3.176zM13.707 0.583c-7.427 0.021-13.513 6.047-13.605 13.473-0.074 6.016 3.766 11.163 9.129 13.049 0.13 0.046 0.262-0.062 0.242-0.199-0.070-0.467-0.136-0.936-0.198-1.398-0.022-0.163-0.126-0.304-0.276-0.37-4.239-1.852-7.198-6.103-7.151-11.027 0.062-6.462 5.339-11.73 11.801-11.783 6.606-0.053 11.998 5.305 11.998 11.899 0 4.875-2.947 9.074-7.153 10.911-0.151 0.066-0.254 0.207-0.275 0.37-0.061 0.461-0.127 0.931-0.197 1.397-0.021 0.137 0.111 0.245 0.242 0.199 5.311-1.868 9.13-6.934 9.13-12.876 0-7.537-6.143-13.667-13.685-13.646zM13.46 6.844c4.21-0.163 7.688 3.215 7.688 7.39 0 2.123-0.9 4.040-2.337 5.39-0.122 0.115-0.187 0.277-0.178 0.444 0.028 0.508 0.018 1.001-0.016 1.559-0.009 0.148 0.158 0.243 0.28 0.159 2.411-1.648 3.997-4.418 3.997-7.552 0-5.16-4.298-9.336-9.503-9.134-4.837 0.187-8.717 4.175-8.779 9.015-0.041 3.183 1.555 6.003 3.997 7.672 0.123 0.084 0.289-0.011 0.28-0.16-0.034-0.558-0.044-1.051-0.016-1.559 0.009-0.167-0.056-0.329-0.178-0.443-1.483-1.392-2.393-3.387-2.335-5.589 0.102-3.876 3.227-7.041 7.101-7.191z"></path>
</symbol>
<symbol id="icon-vectorRight" viewBox="0 0 33 32">
<path fill="none" stroke="#848895" style="stroke: var(--color1, #848895)" stroke-linejoin="round" stroke-linecap="round" stroke-miterlimit="4" stroke-width="1.0667" d="M16.085 29.333c7.364 0 13.333-5.97 13.333-13.333s-5.97-13.333-13.333-13.333c-7.364 0-13.333 5.97-13.333 13.333s5.97 13.333 13.333 13.333z"></path>
<path fill="none" stroke="#848895" style="stroke: var(--color1, #848895)" stroke-linejoin="round" stroke-linecap="round" stroke-miterlimit="4" stroke-width="1.0667" d="M16.085 21.333l5.333-5.333-5.333-5.333"></path>
<path fill="none" stroke="#848895" style="stroke: var(--color1, #848895)" stroke-linejoin="round" stroke-linecap="round" stroke-miterlimit="4" stroke-width="1.0667" d="M10.752 16h10.667"></path>
</symbol>
<symbol id="icon-vector90degree" viewBox="0 0 33 32">
<path fill="none" stroke="#848895" style="stroke: var(--color1, #848895)" stroke-linejoin="round" stroke-linecap="round" stroke-miterlimit="4" stroke-width="1.3333" d="M9.44 22.667l13.333-13.333"></path>
<path fill="none" stroke="#848895" style="stroke: var(--color1, #848895)" stroke-linejoin="round" stroke-linecap="round" stroke-miterlimit="4" stroke-width="1.3333" d="M9.44 9.333h13.333v13.333"></path>
</symbol>
<symbol id="icon-logo" viewBox="0 0 37 32">
<path d="M35.768 25.244l-5.935 6.319c-0.128 0.139-0.283 0.249-0.456 0.324s-0.36 0.113-0.549 0.112h-28.136c-0.134-0.001-0.265-0.040-0.378-0.113s-0.201-0.177-0.256-0.299c-0.054-0.122-0.070-0.257-0.047-0.389s0.084-0.255 0.175-0.353l5.928-6.319c0.128-0.139 0.283-0.249 0.456-0.324s0.36-0.113 0.549-0.112h28.136c0.135-0.004 0.268 0.033 0.382 0.105s0.204 0.176 0.259 0.3c0.055 0.123 0.071 0.26 0.048 0.393s-0.086 0.256-0.179 0.353l0.004 0.004zM29.831 12.515c-0.13-0.136-0.286-0.245-0.458-0.32s-0.358-0.114-0.547-0.117h-28.135c-0.134 0.001-0.265 0.040-0.378 0.114s-0.201 0.178-0.256 0.3c-0.054 0.122-0.070 0.257-0.047 0.389 0.024 0.133 0.084 0.252 0.175 0.352l5.928 6.323c0.127 0.136 0.284 0.247 0.455 0.32 0.174 0.076 0.359 0.113 0.55 0.116h28.136c0.133 0 0.264-0.039 0.376-0.112s0.199-0.178 0.251-0.3c0.054-0.122 0.071-0.257 0.048-0.389s-0.084-0.253-0.176-0.35l-5.926-6.323 0.004-0.004zM0.69 7.976h28.136c0.189-0.001 0.376-0.040 0.55-0.114 0.174-0.076 0.328-0.183 0.455-0.322l5.938-6.319c0.069-0.073 0.12-0.161 0.151-0.256s0.041-0.196 0.029-0.296c-0.012-0.1-0.046-0.195-0.099-0.28s-0.124-0.158-0.208-0.212c-0.114-0.073-0.247-0.11-0.383-0.107h-28.141c-0.187 0-0.376 0.040-0.55 0.113-0.173 0.075-0.328 0.185-0.455 0.324l-5.928 6.319c-0.091 0.098-0.151 0.22-0.174 0.351s-0.007 0.267 0.046 0.389c0.055 0.122 0.144 0.226 0.256 0.299s0.243 0.112 0.377 0.113v-0.002z"></path>
</symbol>
<symbol id="icon-yt" viewBox="0 0 32 32">
<path d="M31.067 9.734c0-0.267-0.4-2.4-1.333-3.333-1.2-1.333-2.533-1.467-3.2-1.467h-0.133c-4.133-0.267-10.267-0.267-10.4-0.267 0 0-6.267 0-10.4 0.267h-0.133c-0.667 0-2 0.133-3.2 1.467-0.933 1.067-1.333 3.2-1.333 3.467 0 0.133-0.267 2.533-0.267 5.067v2.267c0 2.533 0.267 4.933 0.267 5.067 0 0.267 0.4 2.4 1.333 3.333 1.067 1.2 2.4 1.333 3.2 1.467h0.4c2.4 0.267 9.733 0.267 10 0.267 0 0 6.267 0 10.4-0.267h0.133c0.667-0.133 2-0.267 3.2-1.467 0.933-1.067 1.333-3.2 1.333-3.467 0-0.133 0.267-2.533 0.267-5.067v-2.267c0.133-2.4-0.133-4.933-0.133-5.067zM21.2 16.267l-8 4.267c-0.133 0-0.133 0.133-0.267 0.133s-0.267 0-0.267-0.133-0.267-0.267-0.267-0.533v-8.667c0-0.267 0.133-0.4 0.267-0.533s0.4-0.133 0.667 0l8 4.267c0.267 0.133 0.4 0.267 0.4 0.533s-0.267 0.533-0.533 0.667z"></path>
</symbol>
<symbol id="icon-twtr" viewBox="0 0 32 32">
<path d="M29.824 8.503c-1.041 0.462-2.146 0.765-3.277 0.898 1.192-0.712 2.083-1.834 2.508-3.156-1.12 0.665-2.345 1.133-3.623 1.385-0.534-0.57-1.179-1.023-1.895-1.333s-1.489-0.469-2.269-0.468c-3.15 0-5.704 2.554-5.704 5.705 0 0.446 0.050 0.882 0.148 1.3-4.741-0.238-8.945-2.509-11.759-5.961-0.507 0.871-0.774 1.861-0.772 2.869 0 1.979 1.007 3.725 2.538 4.748-0.906-0.029-1.792-0.274-2.584-0.714l-0.001 0.072c0 2.764 1.967 5.069 4.577 5.594-0.84 0.227-1.722 0.261-2.577 0.097 0.726 2.266 2.833 3.916 5.329 3.962-2.021 1.586-4.516 2.446-7.085 2.442-0.46 0-0.914-0.027-1.361-0.080 2.608 1.676 5.644 2.566 8.745 2.563 10.494 0 16.231-8.692 16.231-16.231 0-0.247-0.005-0.494-0.016-0.739 1.117-0.806 2.081-1.806 2.846-2.952z"></path>
</symbol>
<symbol id="icon-ds" viewBox="0 0 32 32">
<path d="M10.718 4.892c-1.017 0-4.082 1.243-4.632 1.492s-1.16 1.024-1.853 2.305c-0.694 1.28-1.25 2.777-2.154 4.979s-1.114 6.446-1.084 7.741 0.179 2.307 1.506 3.074c1.327 0.765 2.5 1.567 3.735 2.049s2.079 0.829 2.651 0.347c0.573-0.482 0.95-1.326 0.95-1.326s0.542-0.753-0.482-1.205c-1.024-0.453-1.536-0.769-1.492-1.236s0.12-0.723 0.376-0.662c0.256 0.061 0.86 1.144 3.18 1.641s4.581 0.422 4.581 0.422c0 0 2.262 0.076 4.582-0.422s2.922-1.581 3.179-1.641c0.256-0.060 0.331 0.196 0.376 0.661 0.045 0.468-0.467 0.784-1.491 1.237-1.024 0.452-0.482 1.205-0.482 1.205s0.377 0.843 0.95 1.326c0.572 0.482 1.415 0.135 2.65-0.347s2.41-1.282 3.736-2.049c1.327-0.766 1.476-1.778 1.506-3.074s-0.18-5.54-1.085-7.741c-0.903-2.202-1.461-3.698-2.154-4.979-0.692-1.28-1.303-2.056-1.852-2.305-0.55-0.248-3.616-1.491-4.633-1.491s-1.317 0.709-1.317 0.709l-0.354 0.783c0 0-2.381-0.453-3.594-0.454s-3.625 0.454-3.625 0.454l-0.354-0.784c0 0-0.3-0.708-1.318-0.708zM10.828 14.291h0.038c1.482 0 2.683 1.297 2.683 2.897s-1.201 2.897-2.683 2.897-2.683-1.296-2.683-2.897c-0.001-1.585 1.178-2.875 2.646-2.897zM21.134 14.291h0.038c1.467 0.022 2.646 1.313 2.646 2.897 0 1.601-1.201 2.897-2.683 2.897-1.483 0-2.683-1.296-2.683-2.897s1.2-2.897 2.683-2.897z"></path>
</symbol>
<symbol id="icon-robot" viewBox="0 0 32 32">
<path d="M29.939 16.054c-0.001-0.851-0.339-1.668-0.942-2.27s-1.418-0.941-2.27-0.942c-0.78-0.001-1.533 0.284-2.116 0.801-2.124-1.359-4.957-2.215-8.083-2.308l1.913-6.541 4.696 0.873c0 0.038-0.008 0.074-0.006 0.113 0.028 0.537 0.268 1.041 0.667 1.402s0.925 0.548 1.463 0.521c0.537-0.028 1.041-0.268 1.402-0.667s0.548-0.925 0.521-1.462c-0.028-0.537-0.268-1.042-0.667-1.402s-0.925-0.548-1.463-0.521c-0.342 0.018-0.674 0.123-0.965 0.305s-0.531 0.434-0.697 0.734l-0.002-0.001-5.658-1.051-2.254 7.698c-3.133 0.083-5.976 0.935-8.109 2.291-0.581-0.506-1.326-0.784-2.097-0.783-0.851 0.001-1.668 0.34-2.27 0.942s-0.941 1.418-0.942 2.27c0 1.095 0.564 2.105 1.477 2.694-0.057 0.322-0.086 0.649-0.087 0.976 0 4.635 5.619 8.406 12.526 8.406s12.525-3.771 12.525-8.406c0-0.321-0.029-0.637-0.082-0.948 0.464-0.287 0.846-0.688 1.112-1.164s0.407-1.012 0.408-1.558zM10.023 18.239c0-0.259 0.051-0.516 0.15-0.755s0.245-0.457 0.428-0.64c0.183-0.183 0.401-0.328 0.64-0.428s0.496-0.15 0.755-0.15c0.259 0 0.516 0.051 0.755 0.15s0.457 0.245 0.64 0.428c0.183 0.183 0.328 0.401 0.428 0.64s0.15 0.496 0.15 0.755c-0 0.523-0.208 1.025-0.578 1.395s-0.872 0.578-1.396 0.578-1.025-0.208-1.395-0.578c-0.37-0.37-0.578-0.872-0.578-1.396zM20.628 23.577c-0.059 0.061-1.475 1.502-4.675 1.502-3.217 0-4.504-1.461-4.556-1.523-0.081-0.102-0.12-0.231-0.108-0.361s0.074-0.25 0.173-0.335c0.099-0.085 0.227-0.129 0.357-0.122s0.253 0.064 0.342 0.16c0.029 0.032 1.103 1.173 3.793 1.173 2.737 0 3.937-1.182 3.949-1.194 0.095-0.087 0.219-0.134 0.348-0.132s0.251 0.052 0.344 0.141c0.093 0.089 0.148 0.21 0.154 0.338s-0.036 0.255-0.12 0.353zM20.236 20.213c-0.259 0-0.516-0.051-0.755-0.15s-0.457-0.244-0.64-0.427-0.329-0.401-0.428-0.64c-0.099-0.239-0.15-0.496-0.151-0.755s0.051-0.516 0.15-0.755c0.099-0.239 0.244-0.457 0.427-0.64s0.401-0.329 0.64-0.428c0.239-0.099 0.496-0.15 0.755-0.151 0.523-0 1.025 0.207 1.395 0.577s0.578 0.872 0.579 1.395-0.207 1.025-0.577 1.395c-0.37 0.37-0.872 0.578-1.395 0.579z"></path>
</symbol>
<symbol id="icon-git" viewBox="0 0 32 32">
<path d="M16 0c-8.835 0-16 7.345-16 16.405 0 7.249 4.585 13.398 10.942 15.567 0.8 0.152 1.093-0.355 1.093-0.789 0-0.391-0.015-1.683-0.022-3.054-4.451 0.992-5.391-1.936-5.391-1.936-0.728-1.896-1.777-2.4-1.777-2.4-1.451-1.019 0.11-0.997 0.11-0.997 1.607 0.115 2.453 1.69 2.453 1.69 1.427 2.508 3.743 1.783 4.656 1.364 0.143-1.060 0.558-1.784 1.015-2.193-3.553-0.415-7.289-1.822-7.289-8.108 0-1.791 0.625-3.255 1.649-4.403-0.167-0.413-0.714-2.082 0.155-4.341 0 0 1.344-0.441 4.401 1.681 1.276-0.363 2.645-0.545 4.005-0.552 1.36 0.007 2.73 0.189 4.009 0.552 3.053-2.122 4.395-1.681 4.395-1.681 0.871 2.26 0.323 3.928 0.157 4.341 1.027 1.149 1.647 2.613 1.647 4.403 0 6.301-3.743 7.689-7.306 8.095 0.574 0.509 1.085 1.507 1.085 3.038 0 2.195-0.018 3.961-0.018 4.502 0 0.437 0.288 0.948 1.099 0.787 6.354-2.171 10.933-8.319 10.933-15.565 0-9.060-7.163-16.405-16-16.405z"></path>
<path d="M6.060 23.554c-0.035 0.082-0.16 0.106-0.274 0.050-0.116-0.053-0.181-0.165-0.144-0.247 0.035-0.084 0.16-0.107 0.276-0.051 0.116 0.054 0.182 0.167 0.142 0.248zM6.708 24.295c-0.076 0.072-0.225 0.039-0.327-0.076-0.105-0.115-0.124-0.267-0.047-0.341 0.079-0.073 0.223-0.039 0.328 0.075 0.105 0.116 0.125 0.268 0.045 0.341zM7.339 25.24c-0.097 0.070-0.258 0.005-0.357-0.141-0.098-0.147-0.098-0.321 0.003-0.391 0.099-0.070 0.257-0.007 0.357 0.138 0.098 0.148 0.098 0.323-0.003 0.395zM8.203 26.153c-0.088 0.099-0.275 0.072-0.411-0.063-0.14-0.132-0.179-0.32-0.091-0.419s0.277-0.071 0.414 0.063c0.139 0.132 0.181 0.321 0.088 0.42zM9.395 26.682c-0.039 0.129-0.219 0.187-0.4 0.133-0.18-0.057-0.299-0.207-0.263-0.337 0.038-0.129 0.219-0.191 0.401-0.132 0.18 0.056 0.299 0.205 0.261 0.336zM10.705 26.781c0.004 0.135-0.149 0.247-0.34 0.249-0.191 0.005-0.346-0.105-0.348-0.238 0-0.137 0.151-0.247 0.341-0.251s0.347 0.105 0.347 0.239zM11.923 26.568c0.023 0.132-0.109 0.267-0.298 0.303-0.186 0.035-0.358-0.047-0.381-0.177-0.023-0.135 0.111-0.271 0.297-0.307 0.189-0.033 0.359 0.047 0.383 0.181z"></path>
</symbol>
<symbol id="icon-tg" viewBox="0 0 32 32">
<path d="M30.293 6.139l-4.339 20.461c-0.327 1.444-1.181 1.803-2.394 1.123l-6.61-4.871-3.19 3.068c-0.353 0.353-0.648 0.648-1.329 0.648l0.475-6.733 12.252-11.071c0.533-0.475-0.115-0.738-0.828-0.263l-15.146 9.537-6.521-2.041c-1.418-0.443-1.444-1.418 0.295-2.099l25.505-9.826c1.181-0.443 2.214 0.263 1.829 2.067z"></path>
</symbol>
<symbol id="icon-globus" viewBox="0 0 30 32">
<path fill="#848895" style="fill: var(--color1, #848895)" d="M20.624 10c-0.889-5.581-2.985-9.5-5.424-9.5s-4.535 3.919-5.424 9.5h10.848zM9.316 16c0 1.388 0.074 2.719 0.202 4h11.357c0.129-1.281 0.202-2.612 0.202-4s-0.074-2.719-0.202-4h-11.357c-0.129 1.281-0.202 2.613-0.202 4zM29.217 10c-1.753-4.244-5.302-7.525-9.684-8.85 1.495 2.112 2.525 5.294 3.064 8.85h6.619zM10.861 1.15c-4.376 1.325-7.931 4.606-9.678 8.85h6.619c0.533-3.556 1.563-6.737 3.058-8.85zM29.873 12h-7.030c0.129 1.313 0.202 2.656 0.202 4s-0.073 2.688-0.202 4h7.024c0.337-1.281 0.527-2.612 0.527-4s-0.19-2.719-0.521-4zM7.355 16c0-1.344 0.074-2.688 0.202-4h-7.030c-0.331 1.281-0.527 2.613-0.527 4s0.196 2.719 0.527 4h7.024c-0.123-1.312-0.196-2.656-0.196-4zM9.776 22c0.889 5.581 2.985 9.5 5.424 9.5s4.536-3.919 5.424-9.5h-10.848zM19.539 30.85c4.376-1.325 7.931-4.606 9.684-8.85h-6.619c-0.539 3.556-1.569 6.737-3.064 8.85zM1.183 22c1.753 4.244 5.302 7.525 9.684 8.85-1.495-2.112-2.525-5.294-3.064-8.85h-6.619z"></path>
</symbol>
<symbol id="icon-Vector-1" viewBox="0 0 27 32">
<path fill="#848895" style="fill: var(--color1, #848895)" d="M1.487 20.747h24.824v1.323c0 2.268-1.762 4.090-3.928 4.090h-1.143l-5.221 5.396v-5.396h-10.604c-2.165 0-3.928-1.822-3.928-4.090v-1.323zM1.487 19.328h24.824v-5.113h-24.824v5.113zM1.487 12.747h24.824v-5.113h-24.824v5.113zM22.377 0.759h-16.962c-2.165 0-3.928 1.823-3.928 4.072v1.341h24.824v-1.341c-0.006-2.25-1.768-4.072-3.934-4.072z"></path>
</symbol>
</defs>
</svg>
